<mxfile host="app.diagrams.net" agent="Mozilla/5.0 (Linux; Android 10; K) AppleWebKit/537.36 (KHTML, like Gecko) Chrome/138.0.0.0 Safari/537.36" version="28.1.0" pages="2">
  <diagram name="Page-1" id="GCuHEHV3TT69qPSFdofg">
    <mxGraphModel dx="977" dy="797" grid="1" gridSize="10" guides="1" tooltips="1" connect="1" arrows="1" fold="1" page="1" pageScale="1" pageWidth="850" pageHeight="1100" math="0" shadow="0">
      <root>
        <mxCell id="0" />
        <mxCell id="1" parent="0" />
        <mxCell id="1BuEzqjNg5abX6-giijZ-1" value="Skriptor" style="swimlane;whiteSpace=wrap;html=1;" vertex="1" parent="1">
          <mxGeometry x="280" y="120" width="320" height="420" as="geometry" />
        </mxCell>
        <mxCell id="1BuEzqjNg5abX6-giijZ-3" value="Login" style="ellipse;whiteSpace=wrap;html=1;" vertex="1" parent="1BuEzqjNg5abX6-giijZ-1">
          <mxGeometry x="100" y="50" width="120" height="80" as="geometry" />
        </mxCell>
        <mxCell id="1BuEzqjNg5abX6-giijZ-4" value="Transkripsi Audio" style="ellipse;whiteSpace=wrap;html=1;" vertex="1" parent="1BuEzqjNg5abX6-giijZ-1">
          <mxGeometry x="100" y="140" width="120" height="80" as="geometry" />
        </mxCell>
        <mxCell id="1BuEzqjNg5abX6-giijZ-5" value="Manajemen Transkripsi Audio" style="ellipse;whiteSpace=wrap;html=1;" vertex="1" parent="1BuEzqjNg5abX6-giijZ-1">
          <mxGeometry x="100" y="230" width="120" height="80" as="geometry" />
        </mxCell>
        <mxCell id="1BuEzqjNg5abX6-giijZ-6" value="Manajemen Akun" style="ellipse;whiteSpace=wrap;html=1;" vertex="1" parent="1BuEzqjNg5abX6-giijZ-1">
          <mxGeometry x="100" y="320" width="120" height="80" as="geometry" />
        </mxCell>
        <mxCell id="1BuEzqjNg5abX6-giijZ-8" style="edgeStyle=none;curved=1;rounded=0;orthogonalLoop=1;jettySize=auto;html=1;entryX=0;entryY=0.5;entryDx=0;entryDy=0;fontSize=12;startSize=8;endSize=8;" edge="1" parent="1" source="1BuEzqjNg5abX6-giijZ-2" target="1BuEzqjNg5abX6-giijZ-3">
          <mxGeometry relative="1" as="geometry" />
        </mxCell>
        <mxCell id="1BuEzqjNg5abX6-giijZ-9" style="edgeStyle=none;curved=1;rounded=0;orthogonalLoop=1;jettySize=auto;html=1;entryX=0;entryY=0.5;entryDx=0;entryDy=0;fontSize=12;startSize=8;endSize=8;" edge="1" parent="1" source="1BuEzqjNg5abX6-giijZ-2" target="1BuEzqjNg5abX6-giijZ-4">
          <mxGeometry relative="1" as="geometry" />
        </mxCell>
        <mxCell id="1BuEzqjNg5abX6-giijZ-10" style="edgeStyle=none;curved=1;rounded=0;orthogonalLoop=1;jettySize=auto;html=1;entryX=0;entryY=0.5;entryDx=0;entryDy=0;fontSize=12;startSize=8;endSize=8;" edge="1" parent="1" source="1BuEzqjNg5abX6-giijZ-2" target="1BuEzqjNg5abX6-giijZ-5">
          <mxGeometry relative="1" as="geometry" />
        </mxCell>
        <mxCell id="1BuEzqjNg5abX6-giijZ-11" style="edgeStyle=none;curved=1;rounded=0;orthogonalLoop=1;jettySize=auto;html=1;entryX=0;entryY=0.5;entryDx=0;entryDy=0;fontSize=12;startSize=8;endSize=8;" edge="1" parent="1" source="1BuEzqjNg5abX6-giijZ-2" target="1BuEzqjNg5abX6-giijZ-6">
          <mxGeometry relative="1" as="geometry" />
        </mxCell>
        <mxCell id="1BuEzqjNg5abX6-giijZ-2" value="User" style="shape=umlActor;verticalLabelPosition=bottom;verticalAlign=top;html=1;outlineConnect=0;" vertex="1" parent="1">
          <mxGeometry x="190" y="350" width="30" height="60" as="geometry" />
        </mxCell>
      </root>
    </mxGraphModel>
  </diagram>
  <diagram id="RInxXyL9VE2bBh9V4y0u" name="Page-2">
    <mxGraphModel dx="928" dy="622" grid="0" gridSize="10" guides="1" tooltips="1" connect="1" arrows="1" fold="1" page="0" pageScale="1" pageWidth="850" pageHeight="1100" math="0" shadow="0">
      <root>
        <mxCell id="0" />
        <mxCell id="1" parent="0" />
      </root>
    </mxGraphModel>
  </diagram>
</mxfile>
